<?xml version="1.0" encoding="UTF-8" standalone="no"?>

<!-- Creator: CorelDRAW X7 -->
<?xml-stylesheet type="text/css" href="mapStyle.css"?>

<svg xmlns:rdf="http://www.w3.org/1999/02/22-rdf-syntax-ns#"  xmlns="http://www.w3.org/2000/svg" xml:space="preserve" height="639.78" width="545" version="1.1" xmlns:cc="http://creativecommons.org/ns#" xmlns:dc="http://purl.org/dc/elements/1.1/" viewBox="0 0 15381.111 18056.049"><metadata><rdf:RDF><cc:Work rdf:about=""><dc:format>image/svg+xml</dc:format><dc:type rdf:resource="http://purl.org/dc/dcmitype/StillImage"/><dc:title/></cc:Work></rdf:RDF></metadata>
 <defs>

 </defs>
 <g transform="translate(-3572.757,-5303.1321)">
  <line  y2="9202" x2="5167" y1="9639" x1="5167" class="fil0 str0"/>
  <line  y2="17958" x2="5167" y1="18435" x1="5167" class="fil0 str0"/>
  <line  y2="17956" x2="13197" y1="18435" x1="13197" class="fil0 str0"/>
  <polyline  points="11366,6821,13197,6821,13197,9639" class="fil0 str0"/>
  <rect   class="fil0 str0" height="9631" width="2963" y="5532" x="15547"/>
  <rect  class="fil0 str0" height="7973" width="2963" y="15163" x="15547"/>
  <rect  class="fil0 str0" height="2381" width="3039" y="6821" x="5167"/>
  <rect  class="fil0 str0" height="2381" width="1870" y="6821" x="8206"/>
  <rect  class="fil0 str0" height="2381" width="1711" y="6821" x="10076"/>
  <rect  class="fil0 str0" height="2381" width="1410" y="6821" x="11787"/>
  <rect  class="fil0 str0" height="1388" width="1482" y="11094" x="11715"/>
  <rect  class="fil0 str0" height="1764" width="1482" y="12482" x="11715"/>
  <rect  class="fil0 str0" height="1019" width="1482" y="14246" x="11715"/>
  <rect  class="fil0 str0" height="1239" width="1482" y="15264" x="11715"/>
  <rect  class="fil0 str0" height="2399" width="1401" y="18435" x="11796"/>
  <rect  class="fil0 str0" height="2399" width="1649" y="18435" x="10147"/>
  <rect  class="fil0 str0" height="2399" width="1879" y="18435" x="8268"/>
  <rect  class="fil0 str0" height="2399" width="1620" y="18435" x="6648"/>
  <rect  class="fil0 str0" height="2399" width="1482" y="18435" x="5167"/>
  <rect  class="fil0 str0" height="1407" width="1482" y="11094" x="5167"/>
  <rect  class="fil0 str0" height="997" width="1482" y="12501" x="5167"/>
  <rect  class="fil0 str0" height="1755" width="1482" y="13497" x="5167"/>
  <rect  class="fil0 str0" height="1251" width="1482" y="15252" x="5167"/>
  <rect  class="fil0 str0" height="1268" width="895" y="15235" x="7081"/>
  <rect  id="A101" class="fil0 str0" height="1358" width="895" y="13877" x="7081"/>
  <rect  class="fil0 str0" height="1376" width="895" y="12501" x="7081"/>
  <rect  class="fil0 str0" height="1407" width="895" y="11094" x="7081"/>
  <rect  class="fil0 str0" height="1455" width="895" y="9639" x="7081"/>
  <rect  class="fil0 str0" height="1455" width="594" y="9639" x="7975"/>
  <rect  class="fil0 str0" height="1455" width="594" y="9639" x="9816"/>
  <rect  class="fil0 str0" height="436" width="884" y="10658" x="10411"/>
  <rect  class="fil0 str0" height="1019" width="690" y="9639" x="10411"/>
  <rect  class="fil0 str0" height="1407" width="884" y="11094" x="10411"/>
  <rect  class="fil0 str0" height="1376" width="884" y="12501" x="10411"/>
  <rect  class="fil0 str0" height="1358" width="884" y="13877" x="10411"/>
  <rect  class="fil0 str0" height="1268" width="884" y="15235" x="10411"/>
  <rect   class="fil0 str0" height="584" width="884" y="16503" x="10411"/>
  <rect  class="fil0 str0" height="871" width="690" y="17087" x="10411"/>
  <rect  class="fil0 str0" height="1455" width="895" y="16503" x="7081"/>
  <rect  class="fil0 str0" height="1455" width="594" y="16503" x="7975"/>
  <line  y2="16503" x2="9816" y1="16503" x1="8570" class="fil0 str0"/>
  <line  y2="11094" x2="9816" y1="11094" x1="8570" class="fil0 str0"/>
  <rect  class="fil0 str0" height="1455" width="594" y="16503" x="9816"/>
  <rect  class="fil0 str0" height="1455" width="1482" y="9639" x="5167"/>
  <rect  class="fil0 str0" height="380" width="551" y="10176" x="6098"/>
  <rect  class="fil0 str0" transform="matrix(0,-0.999993,1.02512,0,5717.83,11094)" height="370" width="537" y="0" x="0"/>
  <rect  class="fil0 str0" transform="matrix(0,-0.999993,1.02512,0,5717.83,10176.2)" height="370" width="537" y="0" x="0"/>
  <rect  class="fil0 str0" height="380" width="551" y="10176" x="5167"/>
  <line  y2="10366" x2="5718" y1="10366" x1="5167" class="fil0 str0"/>
  <line  y2="10271" x2="5167" y1="10271" x1="5718" class="fil0 str0"/>
  <line  y2="10462" x2="5718" y1="10462" x1="5167" class="fil0 str0"/>
  <line  y2="10366" x2="6648" y1="10366" x1="6098" class="fil0 str0"/>
  <line  y2="10271" x2="6098" y1="10271" x1="6648" class="fil0 str0"/>
  <line  y2="10462" x2="6648" y1="10462" x1="6098" class="fil0 str0"/>
  <line  y2="9639" x2="5908" y1="10176" x1="5908" class="fil0 str0"/>
  <line  y2="10176" x2="5813" y1="9639" x1="5813" class="fil0 str0"/>
  <line  y2="10176" x2="5765" y1="9639" x1="5765" class="fil0 str0"/>
  <line  y2="9639" x2="5860" y1="10176" x1="5860" class="fil0 str0"/>
  <line  y2="9639" x2="6050" y1="10176" x1="6050" class="fil0 str0"/>
  <line  y2="10176" x2="5955" y1="9639" x1="5955" class="fil0 str0"/>
  <line  y2="9639" x2="6003" y1="10176" x1="6003" class="fil0 str0"/>
  <line  y2="10557" x2="5908" y1="11094" x1="5908" class="fil0 str0"/>
  <line  y2="11094" x2="5813" y1="10557" x1="5813" class="fil0 str0"/>
  <line  y2="11094" x2="5765" y1="10557" x1="5765" class="fil0 str0"/>
  <line  y2="10557" x2="5860" y1="11094" x1="5860" class="fil0 str0"/>
  <line  y2="10557" x2="6050" y1="11094" x1="6050" class="fil0 str0"/>
  <line  y2="11094" x2="5955" y1="10557" x1="5955" class="fil0 str0"/>
  <line  y2="10557" x2="6003" y1="11094" x1="6003" class="fil0 str0"/>
  <rect  class="fil0 str0" height="1455" width="1482" y="16503" x="5167"/>
  <rect  class="fil0 str0" height="380" width="551" y="17041" x="6098"/>
  <rect  class="fil0 str0" transform="matrix(0,-0.999993,1.02512,0,5717.83,17958.3)" height="370" width="537" y="0" x="0"/>
  <rect  class="fil0 str0" transform="matrix(0,-0.999993,1.02512,0,5717.83,17040.5)" height="370" width="537" y="0" x="0"/>
  <rect  class="fil0 str0" height="380" width="551" y="17041" x="5167"/>
  <line  y2="17231" x2="5718" y1="17231" x1="5167" class="fil0 str0"/>
  <line  y2="17136" x2="5167" y1="17136" x1="5718" class="fil0 str0"/>
  <line  y2="17326" x2="5718" y1="17326" x1="5167" class="fil0 str0"/>
  <line  y2="17231" x2="6648" y1="17231" x1="6098" class="fil0 str0"/>
  <line  y2="17136" x2="6098" y1="17136" x1="6648" class="fil0 str0"/>
  <line  y2="17326" x2="6648" y1="17326" x1="6098" class="fil0 str0"/>
  <line  y2="16503" x2="5908" y1="17041" x1="5908" class="fil0 str0"/>
  <line  y2="17041" x2="5813" y1="16503" x1="5813" class="fil0 str0"/>
  <line  y2="17041" x2="5765" y1="16503" x1="5765" class="fil0 str0"/>
  <line  y2="16503" x2="5860" y1="17041" x1="5860" class="fil0 str0"/>
  <line  y2="16503" x2="6050" y1="17041" x1="6050" class="fil0 str0"/>
  <line  y2="17041" x2="5955" y1="16503" x1="5955" class="fil0 str0"/>
  <line  y2="16503" x2="6003" y1="17041" x1="6003" class="fil0 str0"/>
  <line  y2="17421" x2="5908" y1="17958" x1="5908" class="fil0 str0"/>
  <line  y2="17958" x2="5813" y1="17421" x1="5813" class="fil0 str0"/>
  <line  y2="17958" x2="5765" y1="17421" x1="5765" class="fil0 str0"/>
  <line  y2="17421" x2="5860" y1="17958" x1="5860" class="fil0 str0"/>
  <line  y2="17421" x2="6050" y1="17958" x1="6050" class="fil0 str0"/>
  <line  y2="17958" x2="5955" y1="17421" x1="5955" class="fil0 str0"/>
  <line  y2="17421" x2="6003" y1="17958" x1="6003" class="fil0 str0"/>
  <rect  class="fil0 str0" height="1455" width="1482" y="9639" x="11715"/>
  <rect  class="fil0 str0" height="380" width="551" y="10176" x="12646"/>
  <rect  class="fil0 str0" transform="matrix(0,-0.999993,1.02512,0,12266.4,11094)" height="370" width="537" y="0" x="0"/>
  <rect  class="fil0 str0" transform="matrix(0,-0.999993,1.02512,0,12266.4,10176.2)" height="370" width="537" y="0" x="0"/>
  <rect  class="fil0 str0" height="380" width="551" y="10176" x="11715"/>
  <line  y2="10366" x2="12266" y1="10366" x1="11715" class="fil0 str0"/>
  <line  y2="10271" x2="11715" y1="10271" x1="12266" class="fil0 str0"/>
  <line  y2="10462" x2="12266" y1="10462" x1="11715" class="fil0 str0"/>
  <line  y2="10366" x2="13197" y1="10366" x1="12646" class="fil0 str0"/>
  <line  y2="10271" x2="12646" y1="10271" x1="13197" class="fil0 str0"/>
  <line  y2="10462" x2="13197" y1="10462" x1="12646" class="fil0 str0"/>
  <line  y2="9639" x2="12456" y1="10176" x1="12456" class="fil0 str0"/>
  <line  y2="10176" x2="12361" y1="9639" x1="12361" class="fil0 str0"/>
  <line  y2="10176" x2="12314" y1="9639" x1="12314" class="fil0 str0"/>
  <line  y2="9639" x2="12409" y1="10176" x1="12409" class="fil0 str0"/>
  <line  y2="9639" x2="12599" y1="10176" x1="12599" class="fil0 str0"/>
  <line  y2="10176" x2="12504" y1="9639" x1="12504" class="fil0 str0"/>
  <line  y2="9639" x2="12551" y1="10176" x1="12551" class="fil0 str0"/>
  <line  y2="10557" x2="12456" y1="11094" x1="12456" class="fil0 str0"/>
  <line  y2="11094" x2="12361" y1="10557" x1="12361" class="fil0 str0"/>
  <line  y2="11094" x2="12314" y1="10557" x1="12314" class="fil0 str0"/>
  <line  y2="10557" x2="12409" y1="11094" x1="12409" class="fil0 str0"/>
  <line  y2="10557" x2="12599" y1="11094" x1="12599" class="fil0 str0"/>
  <line  y2="11094" x2="12504" y1="10557" x1="12504" class="fil0 str0"/>
  <line  y2="10557" x2="12551" y1="11094" x1="12551" class="fil0 str0"/>
  <rect  class="fil0 str0" height="1455" width="1482" y="16503" x="11715"/>
  <rect  class="fil0 str0" height="380" width="551" y="17041" x="12646"/>
  <rect  class="fil0 str0" transform="matrix(0,-0.999993,1.02512,0,12266.4,17958.3)" height="370" width="537" y="0" x="0"/>
  <rect  class="fil0 str0" transform="matrix(0,-0.999993,1.02512,0,12266.4,17040.6)" height="370" width="537" y="0" x="0"/>
  <rect  class="fil0 str0" height="380" width="551" y="17041" x="11715"/>
  <line  y2="17231" x2="12266" y1="17231" x1="11715" class="fil0 str0"/>
  <line  y2="17136" x2="11715" y1="17136" x1="12266" class="fil0 str0"/>
  <line  y2="17326" x2="12266" y1="17326" x1="11715" class="fil0 str0"/>
  <line  y2="17231" x2="13197" y1="17231" x1="12646" class="fil0 str0"/>
  <line  y2="17136" x2="12646" y1="17136" x1="13197" class="fil0 str0"/>
  <line  y2="17326" x2="13197" y1="17326" x1="12646" class="fil0 str0"/>
  <line  y2="16503" x2="12456" y1="17041" x1="12456" class="fil0 str0"/>
  <line  y2="17041" x2="12361" y1="16503" x1="12361" class="fil0 str0"/>
  <line  y2="17041" x2="12314" y1="16503" x1="12314" class="fil0 str0"/>
  <line  y2="16503" x2="12409" y1="17041" x1="12409" class="fil0 str0"/>
  <line  y2="16503" x2="12599" y1="17041" x1="12599" class="fil0 str0"/>
  <line  y2="17041" x2="12504" y1="16503" x1="12504" class="fil0 str0"/>
  <line  y2="16503" x2="12551" y1="17041" x1="12551" class="fil0 str0"/>
  <line  y2="17421" x2="12456" y1="17958" x1="12456" class="fil0 str0"/>
  <line  y2="17958" x2="12361" y1="17421" x1="12361" class="fil0 str0"/>
  <line  y2="17958" x2="12314" y1="17421" x1="12314" class="fil0 str0"/>
  <line  y2="17421" x2="12409" y1="17958" x1="12409" class="fil0 str0"/>
  <line  y2="17421" x2="12599" y1="17958" x1="12599" class="fil0 str0"/>
  <line  y2="17958" x2="12504" y1="17421" x1="12504" class="fil0 str0"/>
  <line  y2="17421" x2="12551" y1="17958" x1="12551" class="fil0 str0"/>
 </g>
<rect id="big" height="18028" width="15353" y="13.923" x="13.895"/></svg>

